<?xml version="1.0" encoding="utf-8"?>
<!-- Generator: Adobe Illustrator 18.0.0, SVG Export Plug-In . SVG Version: 6.00 Build 0)  -->
<!DOCTYPE svg PUBLIC "-//W3C//DTD SVG 1.1//EN" "http://www.w3.org/Graphics/SVG/1.1/DTD/svg11.dtd">
<svg version="1.1" id="Capa_1" xmlns="http://www.w3.org/2000/svg" xmlns:xlink="http://www.w3.org/1999/xlink" x="0px" y="0px"
	 viewBox="0 0 80 80" enable-background="new 0 0 80 80" xml:space="preserve">
<g>
	<g>
		<path fill="#FFFFFF" d="M40,7.8c17.8,0,32.2,14.5,32.2,32.2S57.8,72.2,40,72.2S7.8,57.8,7.8,40S22.3,7.8,40,7.8 M40,0
			C18,0,0,18,0,40s18,40,40,40s40-18,40-40S62,0,40,0L40,0z"/>
		<g>
			<circle fill="#FFFFFF" cx="54" cy="40" r="6"/>
			<g>
				<circle fill="#FFFFFF" cx="26" cy="40" r="6"/>
				<path fill="#FFFFFF" d="M40,29L40,29c-0.2,0.2-0.2,0.5-0.5,0.8c-1.2,1.8-2.5,4.2-3,7.7v0.2V38c0,0.2,0,0.5,0,1l0,0
					c0,0.3,0,0.3,0,0.5l0,0l7.5-2l0.5-0.2c1-4.2,5-7.8,9.8-7.8V22C48.3,22.2,43.3,25,40,29z"/>
				<path fill="#FFFFFF" d="M45.8,46c-1,3-2.8,5.5-3.8,7c3.2,3,7.2,4.7,12,4.7v-7.5C50.5,50,47.8,48.5,45.8,46z"/>
				<path fill="#FFFFFF" d="M44,41c0-0.2,0-0.2,0-0.5l0,0l-7.5,2H36c-1.2,4.2-5,7.5-9.8,7.5v7.5c5.8,0,10.8-2.8,13.8-6.8l0,0
					C41.5,49,43.8,45.2,44,41C43.8,41,44,41,44,41z"/>
				<path fill="#FFFFFF" d="M34.5,34.2c1-3.2,2.5-5.8,3.8-7.3c-3.2-3-7.2-4.7-12-4.7v7.5C29.5,30,32.5,31.8,34.5,34.2z"/>
			</g>
			<path fill="#FFFFFF" d="M40,41.5"/>
			<path fill="#FFFFFF" d="M39.5,38.8"/>
		</g>
	</g>
</g>
</svg>
